<svg width="396" height="73" viewBox="0 0 396 73" fill="none" xmlns="http://www.w3.org/2000/svg">
<path d="M94.5835 27.5533V24.8867C94.5841 21.6184 93.9385 18.3819 92.6834 15.3622C91.4282 12.3425 89.5883 9.59877 87.2683 7.28769C84.9487 4.97661 82.1945 3.14352 79.1632 1.89307C76.1323 0.642627 72.8836 -0.000654897 69.6028 5.00301e-07H24.9809C18.3579 0.00744864 12.0082 2.63183 7.32502 7.29738C2.64179 11.9629 0.00747638 18.2886 0 24.8867V47.1132C0.00747638 53.7114 2.64179 60.0369 7.32502 64.7025C12.0082 69.3681 18.3579 71.9925 24.9809 72H69.5958C76.2217 71.9997 82.5763 69.3777 87.262 64.7109C91.948 60.0441 94.5814 53.7141 94.5835 47.1132V44.4465H55.7637V47.1132C55.7695 50.2797 55.0001 53.3997 53.5221 56.2029C52.0444 59.0061 49.9027 61.4082 47.2828 63.2007C46.3096 62.5299 45.3989 61.7736 44.5612 60.9414L44.5603 60.9399C41.1195 57.5313 39.0793 52.9662 38.8393 48.138C41.7982 44.7816 43.4304 40.4673 43.4304 36.0003C43.4304 31.5333 41.7988 27.2189 38.8399 23.8625C38.9971 20.8755 39.84 17.9643 41.3035 15.3528C42.7673 12.7412 44.8129 10.499 47.2831 8.79873C49.903 10.5918 52.0453 12.9938 53.5239 15.7969C55.0028 18.6001 55.7737 21.7199 55.7704 24.8866V27.5532L94.5835 27.5533ZM53.8015 64.7121C57.8467 60.7053 60.3808 55.4316 60.9764 49.7799H89.0501C88.3997 54.4599 86.0719 58.7475 82.4962 61.8513C78.9205 64.9551 74.3384 66.6654 69.5958 66.6666H51.5948C52.3684 66.0591 53.1053 65.4063 53.8015 64.7121ZM34.9525 27.552C36.9686 29.9074 38.0762 32.9013 38.0771 35.997C38.0777 39.0924 36.9713 42.087 34.9561 44.4432H5.35348V27.552H34.9525ZM40.7753 64.7121C41.1463 65.0817 41.5299 65.4402 41.9256 65.7876C41.7775 65.8332 41.6296 65.88 41.4802 65.922C41.3119 65.9697 41.143 66.015 40.9737 66.0579C40.7033 66.1263 40.4317 66.1905 40.1586 66.2472C39.9833 66.2835 39.8068 66.3153 39.6304 66.3468C39.3684 66.3939 39.1064 66.4398 38.8426 66.4764C38.6146 66.5073 38.3852 66.5295 38.1554 66.5529C37.9404 66.5751 37.7257 66.6012 37.5098 66.6162C37.0547 66.6471 36.5973 66.6666 36.1363 66.6666H24.981C20.2408 66.6603 15.6626 64.9473 12.0901 61.8435C8.51761 58.7397 6.19151 54.4542 5.54043 49.7766H33.604C34.1979 55.4289 36.7307 60.7041 40.7753 64.7121ZM33.6031 22.2187H5.54091C6.19302 17.5421 8.51951 13.2577 12.0918 10.1548C15.6641 7.05201 20.2415 5.33967 24.9809 5.33328H36.1363C36.5964 5.33328 37.0532 5.35266 37.5073 5.38341C37.7296 5.39889 37.9506 5.42574 38.172 5.44887C38.3936 5.47125 38.6158 5.49261 38.8357 5.52258C39.11 5.5605 39.3825 5.60802 39.6544 5.65749C39.8171 5.6868 39.98 5.7156 40.1417 5.74914C40.4302 5.80887 40.7166 5.87643 41.002 5.94918C41.1505 5.98692 41.2987 6.02658 41.4462 6.06813C41.6058 6.11274 41.7633 6.1632 41.9217 6.21186C37.2375 10.3238 34.2698 16.0347 33.6031 22.2187ZM53.8024 7.28772C53.1062 6.59364 52.3693 5.94102 51.596 5.33328H69.6028C74.3451 5.33265 78.9274 7.04253 82.5022 10.1468C86.0773 13.2511 88.4033 17.5397 89.0501 22.22H60.983C60.3874 16.5671 57.8509 11.2925 53.8024 7.28769V7.28772Z" fill="#5147DD"/>
<path d="M160.42 72.3678C155.522 72.4113 150.666 71.4642 146.146 69.5832C141.886 67.8345 138.022 65.2527 134.781 61.9902C131.541 58.7277 128.99 54.8508 127.28 50.589C125.467 46.1361 124.552 41.3715 124.585 36.5667V36.3678C124.548 31.5786 125.464 26.83 127.28 22.3953C129.018 18.1414 131.56 14.2591 134.766 10.9587C138.03 7.63044 141.935 4.99224 146.246 3.20204C150.927 1.26914 155.953 0.304834 161.019 0.367761C164.016 0.344098 167.009 0.610636 169.954 1.16363C172.468 1.6406 174.927 2.37367 177.291 3.35126C179.438 4.25361 181.48 5.38752 183.38 6.73269C185.228 8.04642 186.964 9.50979 188.571 11.108L178.788 22.3456C176.288 20.0515 173.484 18.1106 170.453 16.5775C167.481 15.1537 164.217 14.4388 160.919 14.4894C158.117 14.4635 155.342 15.04 152.784 16.1796C150.334 17.274 148.142 18.8663 146.346 20.8543C144.528 22.8775 143.106 25.2215 142.153 27.7654C141.143 30.4521 140.636 33.3 140.656 36.1689V36.3678C140.638 39.2523 141.146 42.1164 142.153 44.8209C143.093 47.3751 144.497 49.7349 146.296 51.7818C148.124 53.8425 150.377 55.4868 152.9 56.6022C155.424 57.7179 158.159 58.2786 160.92 58.2462C164.426 58.3548 167.906 57.6036 171.052 56.0586C174.045 54.4338 176.813 52.4277 179.287 50.0916L189.07 59.9364C187.34 61.7979 185.471 63.5265 183.48 65.1075C181.522 66.6501 179.395 67.9677 177.141 69.0363C174.739 70.1655 172.208 71.0001 169.604 71.5221C166.58 72.1134 163.503 72.3966 160.42 72.3678Z" fill="#140F37"/>
<path d="M198.852 1.56165H214.224V29.1085H242.574V1.56165H257.947V71.1741H242.574V43.2291H214.224V71.1741H198.852V1.56165Z" fill="#140F37"/>
<path d="M272.92 1.56165H288.293V71.1741H272.92V1.56165Z" fill="#140F37"/>
<path d="M303.268 1.56136H331.815C335.631 1.50181 339.428 2.09021 343.045 3.30132C346.149 4.35063 349.004 6.02631 351.431 8.22375C353.726 10.3477 355.533 12.9439 356.722 15.8322C357.984 18.9428 358.61 22.2725 358.568 25.6273V25.8263C358.647 29.4926 357.897 33.1296 356.373 36.4671C354.967 39.4422 352.901 42.0603 350.332 44.1243C347.67 46.233 344.617 47.8035 341.349 48.7482C337.769 49.7985 334.05 50.3181 330.319 50.2902H318.638V71.1738H303.268V1.56136ZM330.819 36.666C334.676 36.666 337.672 35.655 339.801 33.6327C340.837 32.6766 341.656 31.5135 342.205 30.2194C342.756 28.9253 343.027 27.5299 342.997 26.1247V25.9258C343.093 24.4472 342.84 22.9667 342.259 21.6026C341.678 20.2385 340.786 19.0286 339.651 18.0696C337.01 16.1506 333.782 15.2019 330.517 15.3845H318.638V36.666H330.819Z" fill="#140F37"/>
<path d="M392.471 20.5785C390.151 22.8595 387.328 24 384 24C380.672 24 377.832 22.8595 375.479 20.5785C373.16 18.2975 372 15.438 372 12C372 8.59504 373.16 5.75207 375.479 3.47107C377.832 1.15702 380.672 0 384 0C387.328 0 390.151 1.15702 392.471 3.47107C394.824 5.75207 396 8.59504 396 12C396 15.438 394.824 18.2975 392.471 20.5785ZM376.84 19.3884C378.723 21.3058 381.109 22.2645 384 22.2645C386.891 22.2645 389.261 21.3058 391.109 19.3884C392.992 17.438 393.933 14.9752 393.933 12C393.933 9.05785 392.992 6.61157 391.109 4.66116C389.227 2.71075 386.857 1.73554 384 1.73554C381.143 1.73554 378.773 2.71075 376.891 4.66116C375.008 6.61157 374.067 9.05785 374.067 12C374.067 14.9752 374.992 17.438 376.84 19.3884ZM379.311 18.1983V5.50413H385.261C386.437 5.50413 387.412 5.85124 388.185 6.54545C388.958 7.20661 389.345 8.04959 389.345 9.07438C389.345 10.6942 388.538 11.7025 386.924 12.0992V12.1488C388.134 12.4793 388.807 13.3388 388.941 14.7273C388.975 15.0248 389.008 15.3554 389.042 15.719C389.076 16.0826 389.092 16.3802 389.092 16.6116C389.126 16.843 389.143 17.0744 389.143 17.3058C389.176 17.5372 389.21 17.719 389.244 17.8512C389.311 17.9504 389.395 18.0165 389.496 18.0496V18.1983H387.025C386.723 18.0661 386.538 17.0909 386.471 15.2727C386.403 13.8182 385.58 13.0909 384 13.0909H381.882V18.1983H379.311ZM381.882 7.58678V11.157H384.706C386.118 11.157 386.824 10.562 386.824 9.3719C386.824 8.18182 386.118 7.58678 384.706 7.58678H381.882Z" fill="#140F37"/>
</svg>
