<?xml version="1.0" encoding="utf-8" ?>
<svg xmlns="http://www.w3.org/2000/svg" xmlns:xlink="http://www.w3.org/1999/xlink" width="1024" height="1024">
	<path fill="none" d="M0 0L1024 0L1024 1024L0 1024L0 0Z"/>
	<path d="M550.572 25.2211C578.828 24.8221 604.506 30.726 628.437 46.2232C653.951 62.7451 665.154 83.1017 671.115 112.442C674.512 129.161 675.702 140.181 688.473 152.714C700.068 164.092 712.593 174.577 725.04 184.999C744.775 201.523 764.881 217.567 784.726 233.952C839.93 279.529 894.476 326.464 944.188 378.051C949.652 383.721 965.504 399.579 969.256 405.657C970.531 407.723 971.352 410.264 971.814 412.647C972.841 417.952 971.923 423.702 968.841 428.195C965.331 433.314 959.532 436.606 953.45 437.549C945.496 438.781 939.897 435.758 933.728 431.274Q931.421 432.32 929.059 433.235C890.012 448.444 805.228 412.231 768.121 395.484C757.775 390.815 747.826 385.287 737.443 380.694C741.098 388.553 745.917 396.101 749.901 403.833C764.067 431.33 777.25 460.11 783.059 490.683C795.295 555.086 777.234 621.951 740.677 675.627Q735.136 683.645 729.044 691.253Q722.953 698.861 716.342 706.022Q709.731 713.183 702.633 719.861Q695.534 726.539 687.984 732.702C632.704 778.317 567.491 800.231 497.937 813.391C490.813 826.843 488.249 831.873 477.407 842.904C476.131 853.122 476.232 863.649 475.665 873.939C474.833 889.049 473.597 904.173 473.008 919.291C482.3 932.908 512.095 939.274 527.747 943.013C535.298 944.818 545.738 945.931 551.605 951.32C554.206 953.709 555.836 956.892 555.891 960.453C555.943 963.818 554.784 967.465 552.259 969.789C544.553 976.881 529.587 975.707 519.957 975.481C519.648 977.974 519.45 980.895 518.17 983.1C516.318 986.291 513.365 988.358 509.816 989.259C496.807 992.56 472.323 981.001 461.173 974.004C460.276 975.649 459.335 977.552 457.902 978.793C450.886 984.869 436.829 982.217 428.394 981.552C428.959 983.185 429.627 984.897 429.89 986.608C430.34 989.528 429.697 992.498 427.811 994.798C425.292 997.868 421.425 999.711 417.504 1000.05C403.661 1001.27 376.715 982.134 366.147 973.318C357.551 966.148 345.908 954.468 342.933 943.313C340.952 935.884 345.543 929.343 346.021 922.02C347.274 902.798 347.378 882.323 345.595 863.121C345.358 859.165 344.732 855.171 344.277 851.23C336.542 843.234 333.636 836.078 330.362 825.634C313.316 824.24 296.032 822.488 279.284 818.939C264.948 815.902 250.951 811.543 236.765 807.924C223.403 832.518 198.995 855.983 174.596 869.596Q171.698 871.245 168.727 872.756Q165.755 874.268 162.716 875.639Q159.677 877.01 156.578 878.238Q153.478 879.465 150.324 880.547Q147.171 881.628 143.97 882.561Q140.769 883.494 137.528 884.276Q134.287 885.059 131.014 885.689Q127.74 886.319 124.44 886.795C120.975 887.291 116.805 888.209 113.416 887.102C111.89 886.604 110.823 885.652 110.165 884.167C106.67 876.286 117.482 845.211 120.617 836.505C111.763 843.249 98.8161 847.952 88.1371 850.884C81.5002 852.706 60.1157 857.069 54.0478 853.144C52.9139 852.411 52.3581 851.379 52.1938 850.057C51.7105 846.168 53.7186 840.83 54.7179 837Q55.9733 832.209 57.4692 827.489Q58.965 822.768 60.6974 818.128Q62.4298 813.489 64.3944 808.943Q66.3589 804.397 68.5506 799.956Q70.7423 795.515 73.1555 791.191Q75.5687 786.866 78.1973 782.669Q80.8259 778.472 83.6631 774.413Q86.5003 770.354 89.539 766.444C77.9775 707.389 92.3122 643.697 122.748 592.448C133.425 574.469 146.344 558.318 160.582 543.052C210.838 489.169 275.909 454.461 347.006 436.45C411.592 420.088 482.731 422.35 547.664 435.223C561.968 438.059 577.185 440.856 590.808 446.136C599.353 449.447 607.237 453.929 615.084 458.605C618.859 445.193 619.011 431.779 613.702 418.842C602.227 390.874 578.033 369.149 556.829 348.515C517.547 310.287 466.322 268.4 438.953 221.305Q437.551 218.895 436.223 216.443Q434.895 213.991 433.643 211.499Q432.392 209.008 431.217 206.479Q430.042 203.95 428.946 201.386Q427.85 198.822 426.832 196.226Q425.815 193.63 424.878 191.003Q423.941 188.377 423.085 185.723Q422.23 183.07 421.456 180.391Q420.682 177.712 419.99 175.01Q419.299 172.309 418.691 169.588Q418.083 166.867 417.559 164.128Q417.035 161.389 416.595 158.636Q416.155 155.882 415.8 153.117Q415.445 150.351 415.175 147.576Q414.905 144.8 414.721 142.018Q414.536 139.236 414.437 136.449C403.487 148.753 398.486 162.849 391.519 177.356C384.962 163.07 385.592 143.66 388.112 128.512C391.187 110.028 399.849 89.9285 415.51 78.7111C393.254 84.9533 390.221 89.6082 377.246 108.531C377.874 90.439 385.529 73.8452 397.767 60.6604C413.479 43.7328 438.114 36.0331 460.75 36.0533C467.228 36.059 474.262 38.091 480.62 37.0172C488.436 35.6971 496.275 32.8862 504.022 31.0856C519.449 27.5001 534.761 25.7612 550.572 25.2211Z"/>
	<path fill="#FFFFFF" d="M481.063 816.693L481.599 817.238C480.09 821.485 476.649 826.085 473.844 829.618C469.818 834.689 464.024 840.374 457.258 840.951C450.86 841.496 445.951 837.41 441.322 833.629C437.287 830.153 434.114 826.926 431.483 822.27C448.168 821.259 464.557 819.265 481.063 816.693Z"/>
	<path fill="#FFFFFF" d="M93.7122 782.798C98.8402 787.857 98.922 804.777 105.297 808.062C106.678 808.773 108.084 808.983 109.622 808.837C113.337 808.485 117.434 806.955 121.052 805.996L143.91 799.868C134.01 810.164 124.209 819.296 112.049 826.94C98.0525 835.327 83.2797 840.095 67.0385 841.559C73.1919 820.112 80.9599 801.192 93.7122 782.798Z"/>
	<path fill="#FFFFFF" d="M356.995 856.28C362.789 857.02 367.949 857.132 373.755 856.457C371.079 874.457 369.824 892.178 369.34 910.374C369.157 917.243 368.524 924.564 369.721 931.35C370.268 934.451 371.316 937.282 373.22 939.808C383.487 953.423 412.445 956.566 428.511 959.164C433.379 959.952 446.453 962.095 449.1 966.734C449.774 967.915 449.801 968.616 449.511 969.909C442.907 973.702 426.243 970.488 418.612 969.356C413.773 968.552 409.015 967.475 404.147 966.795C406.704 972.384 417.554 981.577 417.681 985.938C417.706 986.793 417.294 986.988 416.784 987.6C414.587 988.353 412.124 987.264 410.085 986.412C390.675 978.311 362.436 960.012 354.272 939.906C361.877 918.04 359.037 879.873 356.995 856.28Z"/>
	<path fill="#FFFFFF" d="M445.289 847.03C451.491 848.543 457.689 848.335 463.977 847.71C463.873 863.205 463.078 878.796 462.279 894.271C461.836 902.858 459.346 915.251 461.294 923.326C464.646 937.216 497.997 946.93 510.775 950.132C519.56 952.333 529.298 953.425 537.723 956.721C539.683 957.487 541.538 958.319 542.725 960.127C542.684 960.887 542.865 961.173 542.229 961.716C537.341 965.889 513.516 963.819 506.876 963.383C500.099 962.627 493.33 961.854 486.527 961.363C490.704 965.784 495.888 968.648 501.162 971.551C502.828 972.468 505.084 973.391 506.543 974.579C507.541 975.392 507.507 975.683 507.649 976.878L506.994 977.605C500.668 979.49 485.923 974.129 480.072 971.258C463.098 962.927 451.359 948.282 445.194 930.585C447.15 926.398 448.841 922.419 449.616 917.829C452.596 900.179 447.739 865.459 445.289 847.03Z"/>
	<path fill="#FFFFFF" d="M185.941 787.64C186.613 787.506 187.28 787.393 187.959 787.569C192.401 788.721 197.417 791.832 201.654 793.723Q213.208 798.793 225.054 803.139C206.853 830.869 184.453 851.315 154.136 865.149C144.226 869.314 134.393 872.072 123.77 873.749Q124.181 870.174 124.808 866.63Q125.435 863.086 126.275 859.586Q127.115 856.086 128.165 852.644Q129.216 849.202 130.473 845.829Q131.73 842.457 133.189 839.167Q134.647 835.877 136.303 832.681Q137.958 829.485 139.804 826.396Q141.65 823.306 143.679 820.334C149.33 812.06 164.205 794.339 173.261 790.475C177.002 788.879 181.912 788.407 185.941 787.64Z"/>
	<path fill="#FFFFFF" d="M406.283 824.066C410.041 823.883 413.834 823.937 417.598 823.898C421.601 830.898 427.5 835.176 432.179 841.425C434.729 858.037 440.337 903.14 437.221 917.715C436.544 920.883 434.06 924.486 432.57 927.426C432.783 936.009 436.508 942.85 440.447 950.215C435.03 948.678 429.227 947.92 423.682 946.891C410.349 944.509 389.983 942.285 381.551 930.647C380.625 921.334 381.438 911.638 381.879 902.31C382.696 885.066 383.592 867.616 386.581 850.59C394.975 842.546 400.671 834.162 406.283 824.066Z"/>
	<path fill="#FFFFFF" d="M666.788 147.405C668.076 147.622 668.499 148.431 669.315 149.39C672.542 153.182 675.547 157.133 679.019 160.717C693.227 175.386 709.906 188.321 725.554 201.433C747.269 219.63 769.065 237.593 791.121 255.368Q827.566 284.735 862.313 316.091Q897.061 347.448 930.003 380.696Q939.301 389.966 948.475 399.359C951.962 402.923 955.962 406.505 958.785 410.624C960.313 412.853 961.526 415.302 961.73 418.037C961.891 420.189 961.32 422.346 959.782 423.913C957.755 425.977 954.518 426.876 951.692 426.856C948.185 426.831 945.128 425.215 942.442 423.07C938.3 419.762 934.837 414.678 931.355 410.67Q923.2 401.252 914.505 392.329C853.023 328.78 777.279 278.889 698.969 238.496C660.599 218.705 621.012 201.153 583.828 179.09C591.334 176.335 599.542 175.393 607.217 173.098Q615.03 170.837 622.685 168.09Q630.341 165.343 637.809 162.122Q645.278 158.901 652.529 155.218Q659.781 151.535 666.788 147.405Z"/>
	<path fill="#FFFFFF" d="M574.018 183.906Q606.257 201.957 639.174 218.74C665.182 231.804 691.641 244.201 717.242 258.049Q729.159 264.358 740.861 271.056Q752.563 277.755 764.038 284.836Q775.513 291.917 786.747 299.373Q797.982 306.829 808.964 314.652Q819.947 322.475 830.665 330.657Q841.383 338.838 851.825 347.368Q862.268 355.899 872.422 364.769Q882.578 373.64 892.434 382.841C905.31 395.036 918.288 407.862 929.708 421.456L923.289 423.706C869.091 435.423 751.77 375.873 703.949 347.603C658.945 320.997 609.587 284.509 582.94 238.593C578.083 230.225 573.481 221.725 571.103 212.277C568.562 202.182 568.628 193.037 574.018 183.906Z"/>
	<path fill="#FFFFFF" d="M542.585 37.7885Q544.937 37.55 547.297 37.4007Q549.656 37.2515 552.02 37.1917Q554.383 37.132 556.748 37.1618Q559.112 37.1916 561.473 37.3109Q563.834 37.4303 566.189 37.639Q568.544 37.8477 570.89 38.1454Q573.235 38.4432 575.568 38.8296Q577.9 39.216 580.216 39.6904Q582.533 40.1649 584.829 40.7267Q587.126 41.2886 589.399 41.937Q591.673 42.5855 593.921 43.3196Q596.168 44.0537 598.386 44.8724Q600.604 45.6911 602.79 46.5932Q604.975 47.4953 607.125 48.4796Q609.274 49.4639 611.385 50.5288Q613.496 51.5938 615.565 52.738C636.904 64.6296 650.711 81.4422 656.53 105.434C659.227 116.556 660.788 127.775 663.91 138.828C648.239 149.309 624.118 159.035 605.854 163.873C598.18 165.905 590.231 166.723 582.656 169.155C574.579 171.749 565.865 176.24 561.999 184.209C556.318 195.92 560.496 211.299 564.595 222.78C547.595 212.772 531.648 206.812 519.134 190.108C509.683 177.493 505.212 162.767 507.529 147.091Q505.315 150.834 503.868 154.934Q503.518 155.977 503.221 157.036Q502.924 158.094 502.681 159.167Q502.437 160.239 502.247 161.323Q502.058 162.406 501.922 163.497Q501.787 164.589 501.707 165.685Q501.626 166.782 501.601 167.882Q501.575 168.981 501.605 170.08Q501.635 171.18 501.719 172.276Q501.804 173.373 501.943 174.464Q502.082 175.555 502.276 176.637Q502.47 177.72 502.718 178.791Q502.965 179.863 503.266 180.92Q503.567 181.978 503.921 183.02Q504.274 184.061 504.68 185.083Q505.085 186.106 505.541 187.106Q505.997 188.107 506.502 189.084C517.145 210.155 544.065 227.153 566.159 234.267C571.288 242.498 575.401 251.351 580.639 259.549C592.772 278.539 609.553 294.907 626.479 309.602C643.673 324.53 668.181 340.711 687.638 352.833C696.218 358.178 705.427 362.823 713.656 368.682C715.611 370.074 716.794 371.127 717.809 373.365C719.681 377.495 722.257 381.477 724.484 385.434Q731.177 397.116 737.433 409.038C759.71 451.924 772.678 491.093 772.038 539.695C771.156 606.563 737.981 667.143 690.914 712.95C629.896 772.333 533.073 800.03 450.191 808.327C436.275 809.72 421.726 811.632 407.775 811.447C409.35 802.543 413.519 780.196 409.311 772.698C408.354 772.049 408.429 772.012 407.299 772.205C405.625 775.342 406.034 783.669 405.607 787.385C404.007 801.305 400.089 814.365 392.602 826.285C387.43 834.519 378.396 846.462 368.271 848.531C363.529 849.501 359.195 848.053 355.323 845.309C343.159 836.687 338.513 821.057 336.124 807.118C335.639 803.024 335.78 797.445 333.555 793.88L332.781 793.752C329.182 797.627 330.393 807.71 330.417 812.748C300.652 810.735 273.351 805.311 244.88 796.542C233.333 792.986 222.367 789.565 211.694 783.743C221.657 781.016 236.16 779.7 246.812 778.031L317.269 766.626C354.164 760.327 391.263 751.562 426.624 739.212C481.189 720.154 542.543 687.528 586.547 650.11C606.835 632.859 633.609 605.191 644.927 580.741C650.727 568.209 653.955 554.034 655.01 540.3C657.37 509.574 646.422 489.077 627.229 466.563C628.008 463.931 628.744 461.296 629.332 458.614C632.895 442.36 632.178 426.723 625.526 411.352C612.524 381.309 583.454 354.958 560.058 332.924C543.589 317.412 526.842 302.136 510.557 286.437C490.022 266.641 470.404 245.554 454.932 221.496C438.598 196.097 428.143 166.922 427.843 136.506C427.776 129.691 427.948 122.672 429.399 115.991C434.016 110.698 440.326 106.523 445.899 102.297C423.692 111.477 407.866 124.93 396.844 146.692C398.216 133.029 400.075 118.895 406.634 106.612C419.192 83.0981 439.543 76.0843 463.353 68.9098C440.162 67.0802 419.694 69.2706 398.127 78.534C405.865 68.1982 413.833 59.5806 425.982 54.5411C452.626 43.4885 478.111 45.7649 504.125 56.6579C500.468 52.5313 496.119 49.4534 491.649 46.2879Q504.184 43.1067 516.94 40.9782Q529.696 38.8497 542.585 37.7885Z"/>
	<path d="M572.651 73.6781C581.976 72.8535 590.795 74.5329 598.76 79.5643C607.666 85.1904 614.386 94.143 616.604 104.511Q616.785 105.353 616.924 106.203Q617.062 107.052 617.158 107.908Q617.254 108.764 617.308 109.623Q617.361 110.483 617.371 111.344Q617.381 112.205 617.348 113.065Q617.315 113.925 617.239 114.783Q617.163 115.641 617.044 116.494Q616.926 117.346 616.764 118.192Q616.603 119.038 616.4 119.875Q616.196 120.711 615.951 121.537Q615.707 122.362 615.421 123.175Q615.135 123.987 614.809 124.784Q614.482 125.581 614.117 126.36Q613.751 127.14 613.347 127.9Q612.943 128.66 612.502 129.4Q612.06 130.139 611.582 130.855C604.963 140.759 595.854 144.893 584.535 147.175C574.068 148.606 563.013 146.115 554.519 139.753C546.458 133.715 540.608 124.616 539.247 114.577C537.978 105.212 540.314 95.395 546.125 87.8906C552.794 79.2768 562.022 75.0088 572.651 73.6781Z"/>
	<path fill="#FFFFFF" d="M571.505 82.6151C578.89 81.9621 585.386 82.6957 592.053 86.1669C599.351 89.9675 605.316 96.5795 607.708 104.523C609.687 111.096 609.166 118.165 605.762 124.171C601.285 132.071 594.023 136.015 585.516 138.207C577.763 139.186 570.161 138.752 563.211 134.895Q562.543 134.53 561.895 134.133Q561.246 133.735 560.618 133.305Q559.99 132.875 559.385 132.414Q558.78 131.953 558.199 131.462Q557.618 130.971 557.062 130.451Q556.506 129.931 555.977 129.384Q555.449 128.837 554.948 128.264Q554.448 127.691 553.977 127.093Q553.505 126.496 553.065 125.875Q552.625 125.255 552.217 124.613Q551.808 123.971 551.433 123.309Q551.057 122.647 550.715 121.968Q550.374 121.288 550.067 120.591Q549.76 119.895 549.488 119.184Q549.217 118.474 548.982 117.75Q548.746 117.027 548.548 116.292Q548.371 115.638 548.226 114.975Q548.082 114.313 547.971 113.644Q547.86 112.975 547.783 112.301Q547.706 111.628 547.663 110.951Q547.62 110.274 547.611 109.596Q547.602 108.918 547.627 108.241Q547.651 107.563 547.71 106.888Q547.769 106.212 547.862 105.541Q547.955 104.869 548.081 104.203Q548.207 103.537 548.367 102.878Q548.526 102.219 548.719 101.569Q548.911 100.919 549.136 100.279Q549.361 99.6394 549.618 99.0118Q549.875 98.3843 550.162 97.7704Q550.45 97.1566 550.769 96.5579Q551.087 95.9593 551.435 95.3774C556.031 87.761 563.35 84.7629 571.505 82.6151Z"/>
	<path d="M571.378 95.6021Q572.125 95.5608 572.872 95.5728Q573.62 95.5847 574.364 95.65Q575.109 95.7153 575.847 95.8334Q576.586 95.9516 577.314 96.1222Q578.042 96.2927 578.756 96.5147Q579.47 96.7366 580.166 97.009Q580.862 97.2813 581.537 97.6025Q582.212 97.9238 582.863 98.2924C588.174 101.282 592.438 106.594 593.982 112.513C595.055 116.627 594.796 121.345 592.541 125.035C589.78 129.556 585.447 130.85 580.611 131.964C576.065 132.491 571.688 131.873 567.711 129.489Q567.273 129.221 566.849 128.932Q566.424 128.643 566.015 128.333Q565.605 128.023 565.211 127.694Q564.817 127.365 564.439 127.017Q564.062 126.669 563.702 126.303Q563.342 125.936 563 125.553Q562.658 125.17 562.336 124.77Q562.013 124.371 561.71 123.956Q561.408 123.541 561.126 123.112Q560.844 122.682 560.583 122.24Q560.323 121.798 560.084 121.343Q559.845 120.888 559.629 120.422Q559.413 119.957 559.219 119.481Q559.026 119.005 558.857 118.52Q558.687 118.036 558.541 117.543Q558.396 117.051 558.274 116.552C557.131 111.982 557.629 106.982 560.165 102.95C562.824 98.7238 566.691 96.7972 571.378 95.6021Z"/>
	<path fill="#FFFFFF" d="M581.994 105.056C583.441 104.944 584.973 104.722 586.355 105.278C588.102 105.98 589.508 107.439 590.227 109.169C590.925 110.849 590.8 112.881 590.037 114.519C589.072 116.591 587.521 117.309 585.496 118.145C584.406 118.212 583.381 118.245 582.299 118.057C580.57 117.757 579.018 116.92 578.026 115.438C577.088 114.037 576.914 112.378 577.281 110.762C577.917 107.959 579.643 106.493 581.994 105.056Z"/>
	<path fill="#FFFFFF" d="M439.585 438.231C483.766 437.343 569.854 445.789 607.059 468.646C624.155 479.148 635.201 496.032 639.684 515.514C645.163 539.323 639.027 565.916 626.177 586.375C622.052 592.942 617.144 598.994 612.236 604.985C568.659 658.18 494.441 699.73 430.492 723.741Q398.578 735.384 365.496 743.109C377.619 736.957 389.761 730.764 401.504 723.907C439.289 701.841 477.184 665.254 494.185 624.384C496.154 619.649 498.363 614.866 499.619 609.884C500.21 607.538 501.453 602.392 500.237 600.324C497.219 601.929 494.342 610.974 492.728 614.235C487.935 623.924 482.129 633.014 476.107 641.983C441.079 694.16 375.457 734.102 316.042 751.575C305.838 754.576 295.314 756.379 284.884 758.407C293.008 753.907 301.592 750.234 309.806 745.893C331.69 734.328 352.746 719.625 369.307 701.104C383.484 685.249 396.71 664.007 402.668 643.503C403.472 640.736 404.787 636.918 404.487 634.003C404.388 633.051 404.536 633.402 403.791 632.778C402.725 633.255 402.214 633.965 401.618 634.936C398.749 639.608 396.829 645.017 394.253 649.883C390.286 657.377 385.283 664.521 380.357 671.412C355.473 706.215 324.316 729.726 285.801 747.693Q273.403 753.577 260.485 758.21Q247.568 762.843 234.256 766.18C227.353 767.853 220.187 768.767 213.18 769.936C220.723 764.196 229.486 760.061 237.103 754.274C269.358 729.771 297.065 697.373 314.502 660.75C319.005 651.482 325.291 635.063 326.373 624.972C326.542 623.4 326.654 621.801 325.627 620.502L324.642 620.583C323.276 621.991 322.931 623.774 322.285 625.574C318.664 635.655 313.718 645.618 308.693 655.076C284.161 701.245 244.157 742.849 197.243 766.371C179.613 775.21 160.636 781.601 141.815 787.363C159.797 767.204 172.634 743.745 186.214 720.547C201.956 693.655 217.862 667.178 237.42 642.822C242.085 637.012 254.499 625.718 256.983 620.821C257.519 619.763 257.622 619.682 257.254 618.517C253.621 618.23 247.385 624.719 244.616 627.228C227.251 642.962 211.843 663.008 198.949 682.517C181.121 709.49 145.144 780.135 117.57 794.498C113.963 744.189 131.671 675.24 157.647 632.07Q162.794 623.474 168.934 615.557Q173.586 609.678 178.702 604.197C180.545 602.249 182.756 600.45 184.436 598.374C184.873 597.834 184.978 597.326 185.047 596.655C184.642 596.132 184.609 595.767 183.88 595.742C181.259 595.65 177.474 599.183 175.528 600.859C153.898 619.489 140.631 643.203 129.972 669.236C115.308 705.053 108.244 738.034 105.228 776.588C101.338 761.688 99.2868 745.285 98.9302 729.878C97.2073 655.427 126.426 597.13 176.968 544.347C190.491 530.225 206.309 517.791 222.323 506.622C286.595 461.798 361.57 439.945 439.585 438.231Z"/>
</svg>
